<svg width="99" height="99" viewBox="0 0 99 99" fill="none" xmlns="http://www.w3.org/2000/svg">
<g clip-path="url(#clip0_2003_918)">
<path d="M94.8654 78.1343C94.855 74.862 92.8382 72.8112 89.5816 72.7563C89.0088 72.7458 88.4385 72.7563 87.8055 72.7563C87.8055 71.3909 87.8369 70.185 87.8003 68.9792C87.6826 65.1707 84.154 62.4503 80.4867 63.4443C79.4012 63.7372 78.4307 64.4566 77.6146 64.8751C76.121 64.2107 74.664 63.562 73.2071 62.9133L73.0004 63.1382V61.8853C73.0004 42.0501 72.9847 22.215 73.0266 2.37982C73.0318 0.538341 72.5113 -0.790455 70.7823 -1.53333H6.56064C4.85257 -0.704136 4.36604 0.676975 4.37651 2.53415C4.43667 13.3555 4.40528 24.1794 4.40789 35.0007C4.40789 35.2937 4.39219 35.5919 4.41835 35.8822C4.49421 36.7245 5.09583 37.3052 5.87532 37.3078C6.65481 37.3078 7.25904 36.7297 7.33751 35.8874C7.36367 35.5945 7.34798 35.2989 7.34798 35.0059C7.34798 24.216 7.34798 13.4261 7.34798 2.63616V1.46431H70.0656C70.0656 1.90114 70.0656 2.28304 70.0656 2.66755C70.0656 14.339 70.0656 26.013 70.0656 37.6845C70.0656 46.1516 70.0682 54.6214 70.0525 63.0885C70.0525 63.4783 70.0028 64.0485 69.7543 64.229C67.6879 65.7435 67.0993 67.823 67.2013 70.2583C67.2746 71.9794 67.2144 73.7058 67.2144 75.4845H40.628C40.628 73.2454 40.6751 71.0639 40.6176 68.8824C40.5234 65.2674 37.102 62.5445 33.6048 63.392C32.4225 63.6797 31.3474 64.4121 30.1415 64.9771C28.2922 63.2533 26.0139 62.602 23.4662 63.7895C20.9263 64.9745 19.9297 67.1194 20.0448 69.8607C20.084 70.7919 20.05 71.7283 20.05 72.7537C19.4589 72.7537 19.0089 72.7537 18.5564 72.7537C14.9467 72.772 12.998 74.7259 12.9928 78.3331C12.9928 80.0568 12.9928 81.7806 12.9928 83.5567H7.34537V82.3142C7.34537 69.2355 7.34537 56.1568 7.34537 43.0781C7.34537 41.8383 6.82221 41.1843 5.86747 41.1896C4.93888 41.1948 4.41312 41.833 4.41312 42.9996C4.4105 56.4367 4.40788 69.8764 4.41312 83.3134C4.41312 85.4034 5.61897 86.5726 7.7168 86.5726C9.41441 86.5726 11.112 86.536 12.807 86.5726C13.1288 86.5805 13.5682 86.7793 13.7435 87.033C14.8369 88.6181 16.3226 89.3793 18.2295 89.3558C18.8075 89.3479 19.383 89.3558 20.0605 89.3558C20.0605 90.7238 20.0369 91.9584 20.0657 93.1931C20.1102 95.079 20.9027 96.6302 22.4303 97.7026C23.1863 98.2336 24.1175 98.5109 24.9702 98.9032H26.9294C28.1013 98.3278 29.2731 97.7523 30.3351 97.2318C31.4311 97.7628 32.6056 98.333 33.7827 98.9032H35.7418C36.4847 98.5815 37.2851 98.3513 37.9548 97.9197C39.6968 96.8028 40.594 95.147 40.628 93.0754C40.6647 90.9566 40.6359 88.8352 40.6359 86.5805C41.0596 86.5805 41.4049 86.5805 41.7528 86.5805C44.5909 86.5805 47.429 86.5857 50.267 86.5779C51.4389 86.5753 52.1033 86.0599 52.1347 85.168C52.1687 84.2472 51.4494 83.6456 50.2644 83.643C47.102 83.6352 43.9422 83.6404 40.7091 83.6404V78.5554H67.1386V83.5855C66.8116 83.6038 66.4663 83.6352 66.1237 83.6378C63.2856 83.643 60.4449 83.5959 57.6094 83.677C57.0523 83.6927 56.3068 84.0563 56.0034 84.501C55.3651 85.4426 56.1812 86.5622 57.4551 86.5726C60.2932 86.5962 63.1313 86.5805 65.9693 86.5805C66.3251 86.5805 66.6834 86.5805 67.217 86.5805C67.217 87.0722 67.217 87.5143 67.217 87.9537C67.217 89.5546 67.2066 91.158 67.2197 92.7589C67.2458 95.7722 68.7577 97.7994 71.6376 98.7201C71.7527 98.7567 71.8521 98.8431 71.9594 98.9059H74.1121C75.2788 98.3252 76.448 97.7445 77.4707 97.237C78.6112 97.7811 79.7883 98.3435 80.9654 98.9059H82.9246C83.0083 98.8562 83.0841 98.7855 83.1731 98.7594C86.2727 97.8334 87.8029 95.7957 87.8134 92.5705C87.816 91.5347 87.8134 90.4989 87.8134 89.3558C88.4987 89.3558 89.0768 89.3636 89.6575 89.3558C92.7911 89.3087 94.8497 87.237 94.868 84.106C94.8785 82.1128 94.8759 80.1196 94.868 78.1264L94.8654 78.1343ZM20.0056 86.3581C19.1345 86.3581 18.287 86.4628 17.4761 86.3294C16.5528 86.1777 15.9747 85.4976 15.9564 84.5428C15.9145 82.2253 15.9145 79.9077 15.9564 77.5928C15.9747 76.5648 16.7254 75.8272 17.756 75.7409C18.4649 75.6807 19.1816 75.7304 20.0056 75.7304V86.3581ZM28.8729 92.7641C28.8729 94.4329 27.8789 95.678 26.3906 95.9344C25.0592 96.1646 23.6807 95.3903 23.1994 94.0667C23.0372 93.6221 22.998 93.112 22.9953 92.6307C22.9796 88.7777 22.9875 84.9247 22.9875 81.0717C22.9875 77.2187 22.9849 73.3658 22.9875 69.5128C22.9901 67.5144 24.1541 66.1803 25.891 66.162C27.6487 66.1437 28.8729 67.5222 28.8755 69.5494C28.8781 77.2868 28.8808 85.0267 28.8755 92.7641H28.8729ZM37.6853 93.0152C37.6775 94.5219 36.5946 95.7303 35.1664 95.9448C33.7591 96.1567 32.3571 95.2543 31.9438 93.8287C31.8365 93.4599 31.8182 93.0571 31.8156 92.6699C31.8078 84.9326 31.8078 77.1952 31.813 69.4578C31.813 67.4987 33.0424 66.1463 34.7766 66.162C36.5082 66.1777 37.6906 67.5274 37.6932 69.5102C37.6984 73.3632 37.6932 77.2161 37.6932 81.0665H37.6906C37.6906 85.0503 37.7063 89.034 37.6827 93.0152H37.6853ZM76.0373 92.8478C76.0295 94.4512 75.0067 95.6806 73.5602 95.9344C72.2262 96.1698 70.8555 95.3929 70.3585 94.0693C70.2147 93.6822 70.1597 93.2428 70.1571 92.8269C70.1467 84.9796 70.1493 77.1324 70.1493 69.2852C70.1493 67.1612 71.4676 66.3556 73.0998 66.1908C74.6954 66.0312 76.0269 67.5065 76.0373 69.3061C76.0582 73.2297 76.0425 77.1534 76.0425 81.077C76.0425 85.0006 76.0556 88.9242 76.0373 92.8478ZM84.8681 92.7667C84.8681 94.4356 83.8715 95.678 82.3831 95.9344C81.0517 96.1646 79.6732 95.3903 79.1945 94.0641C79.0323 93.6194 78.9931 93.1094 78.9905 92.6281C78.9748 88.7751 78.9826 84.9221 78.9826 81.0691C78.9826 77.2161 78.98 73.3632 78.9826 69.5102C78.9853 67.5117 80.1519 66.1777 81.8887 66.162C83.6491 66.1463 84.8707 67.5248 84.8707 69.552C84.8733 77.2894 84.8759 85.0294 84.8707 92.7667H84.8681ZM91.9122 84.3911C91.8913 85.5603 91.1014 86.332 89.9374 86.4026C89.2651 86.4418 88.5876 86.4105 87.8605 86.4105V75.7487C88.6818 75.7487 89.4613 75.6833 90.2225 75.7644C91.1955 75.8664 91.8939 76.6851 91.9096 77.7367C91.9436 79.9548 91.9462 82.1756 91.9096 84.3937L91.9122 84.3911Z" fill="white"/>
<path d="M34.9781 22.6022C35.2973 22.6519 35.6295 22.6309 35.9538 22.6309C40.0605 22.6309 44.1646 22.6309 48.2713 22.6309C52.378 22.6309 56.6129 22.6309 60.785 22.6309C61.078 22.6309 61.3736 22.644 61.6639 22.6126C62.4486 22.5263 62.9195 22.0843 62.977 21.2891C63.0398 20.4442 62.5977 19.9263 61.7947 19.7432C61.4834 19.6725 61.146 19.6909 60.8217 19.6909C52.5114 19.6909 44.2012 19.6882 35.8937 19.6909C35.5065 19.6909 35.1011 19.6961 34.7375 19.8033C34.0208 20.0152 33.6886 20.5541 33.7487 21.2969C33.8089 22.045 34.2457 22.4871 34.9781 22.5996V22.6022Z" fill="white"/>
<path d="M62.9327 41.8828C62.7496 41.3937 62.2003 41.0039 61.7425 40.6691C61.549 40.5279 61.1723 40.6325 60.8793 40.6325C56.7072 40.6325 52.5377 40.6325 48.3656 40.6325C44.1935 40.6325 40.024 40.6325 35.8519 40.6325C35.5903 40.6325 35.3288 40.6168 35.0698 40.6456C34.2877 40.7345 33.8195 41.174 33.7515 41.9665C33.6835 42.7643 34.0915 43.2849 34.8344 43.4967C35.1692 43.5935 35.5433 43.5726 35.9016 43.5726C44.2118 43.5752 52.522 43.5778 60.8322 43.57C61.2481 43.57 61.6902 43.5543 62.0773 43.4209C62.7836 43.175 63.1838 42.5577 62.9327 41.8854V41.8828Z" fill="white"/>
<path d="M33.7567 28.3044C33.8744 29.1258 34.4394 29.5234 35.5747 29.526C39.8435 29.5338 44.1124 29.5286 48.3813 29.5286C52.488 29.5286 56.5921 29.5286 60.6988 29.5286C62.3389 29.5286 62.985 29.1179 62.9902 28.0769C62.9955 27.0332 62.3154 26.5859 60.7172 26.5859C52.4723 26.5859 44.2301 26.5859 35.9853 26.5859C35.6296 26.5859 35.2634 26.5807 34.9155 26.6513C34.0837 26.8187 33.639 27.4779 33.7567 28.3018V28.3044Z" fill="white"/>
<path d="M61.6639 47.5275C61.4416 47.4935 61.2088 47.5118 60.9812 47.5118C52.5742 47.5118 44.1646 47.5118 35.7576 47.5118C35.4961 47.5118 35.2293 47.483 34.9781 47.5353C34.2248 47.6949 33.7618 48.1474 33.7461 48.9505C33.7304 49.7535 34.1751 50.2322 34.9232 50.41C35.2345 50.4833 35.5719 50.4493 35.8963 50.4493C40.0344 50.4493 44.1751 50.4493 48.3132 50.4493C52.4513 50.4493 56.6574 50.4493 60.8269 50.4493C61.1198 50.4493 61.4207 50.4781 61.7058 50.4257C62.5088 50.2766 62.998 49.8032 62.9849 48.9557C62.9718 48.1082 62.4748 47.6504 61.6639 47.5223V47.5275Z" fill="white"/>
<path d="M15.1768 47.0985C15.9799 48.0402 16.8091 48.9635 17.6618 49.8607C18.436 50.6769 19.2757 50.6638 20.0159 49.8294C20.5783 49.1963 21.0884 48.5189 21.6194 47.8571C23.419 45.6232 25.2291 43.3999 27.0104 41.1503C27.8632 40.0726 27.463 38.6863 26.2519 38.6366C25.7392 38.6157 25.0539 38.9793 24.7086 39.3899C22.7154 41.7572 20.8007 44.1898 18.7761 46.7035C18.2425 46.1202 17.8004 45.5971 17.3191 45.1184C16.6495 44.454 15.8517 44.4226 15.2291 44.9955C14.6301 45.5474 14.5804 46.3923 15.1794 47.0959L15.1768 47.0985Z" fill="white"/>
<path d="M17.4553 28.7282C18.4885 29.8477 19.302 29.8216 20.2751 28.621C22.4932 25.8797 24.7009 23.1279 26.9112 20.3814C27.0551 20.2035 27.2015 20.023 27.3062 19.8242C27.6828 19.1127 27.5364 18.4693 26.9269 17.988C26.3122 17.5041 25.6452 17.5355 25.0566 18.0664C24.7689 18.328 24.5361 18.6498 24.2902 18.9558C22.467 21.2132 20.6491 23.4732 18.7789 25.796C18.3133 25.2911 17.9026 24.8334 17.4788 24.3887C16.7464 23.6223 15.8832 23.5072 15.2424 24.0774C14.5728 24.6738 14.6094 25.5684 15.3549 26.4054C16.048 27.1875 16.7491 27.9644 17.4553 28.7308V28.7282Z" fill="white"/>
</g>
<defs>
<clipPath id="clip0_2003_918">
<rect width="99" height="99" fill="white"/>
</clipPath>
</defs>
</svg>
