<svg width="332" height="105" viewBox="0 0 332 105" fill="none" xmlns="http://www.w3.org/2000/svg">
<path d="M53 41.0376C55.1 41.0376 57.0687 41.8688 58.5562 43.3563L73.6062 58.4063C76.6687 61.4688 76.6687 66.5001 73.6062 69.5626L58.5562 84.6126C57.0687 86.1001 55.1 86.9313 53 86.9313C50.9 86.9313 48.9312 86.1001 47.4437 84.6126L32.3937 69.5626C29.3312 66.5001 29.3312 61.4688 32.3937 58.4063L47.4437 43.3563C48.9312 41.8688 50.9 41.0376 53 41.0376ZM53 33.6438C49.1062 33.6438 45.1687 35.1313 42.1937 38.1063L27.1437 53.1563C21.1937 59.1063 21.1937 68.8188 27.1437 74.7688L42.1937 89.8188C45.1687 92.7938 49.1062 94.2813 53 94.2813C56.8937 94.2813 60.8312 92.7938 63.8063 89.8188L78.8562 74.7688C84.8062 68.8188 84.8062 59.1063 78.8562 53.1563L63.8063 38.1063C60.8312 35.1313 56.8937 33.6438 53 33.6438Z" fill="#FB6514"/>
<path d="M53 22.4875C55.1 22.4875 57.0687 23.3187 58.5562 24.8062L73.6062 39.8562C76.6687 42.9187 76.6687 47.95 73.6062 51.0125L58.5562 66.0625C57.0687 67.55 55.1 68.3813 53 68.3813C50.9 68.3813 48.9312 67.55 47.4437 66.0625L32.3937 51.0125C29.3312 47.95 29.3312 42.9187 32.3937 39.8562L47.4437 24.8062C48.9312 23.3187 50.9 22.4875 53 22.4875ZM53 15.0938C49.1062 15.0938 45.1687 16.5813 42.1937 19.5563L27.1437 34.6062C21.1937 40.5562 21.1937 50.2687 27.1437 56.2187L42.1937 71.2687C45.1687 74.2438 49.1062 75.7313 53 75.7313C56.8937 75.7313 60.8312 74.2438 63.8063 71.2687L78.8562 56.2187C84.8062 50.2687 84.8062 40.5562 78.8562 34.6062L63.8063 19.5563C60.8312 16.5813 56.8937 15.0938 53 15.0938Z" fill="#FB6514"/>
<path d="M132.356 30.1364H143.923L156.141 59.9432H156.661L168.878 30.1364H180.445V74.5H171.347V45.6246H170.979L159.498 74.2834H153.303L141.822 45.5163H141.454V74.5H132.356V30.1364ZM197.488 75.1282C195.365 75.1282 193.473 74.7599 191.812 74.0234C190.152 73.2725 188.838 72.1677 187.87 70.7092C186.917 69.2362 186.44 67.4021 186.44 65.207C186.44 63.3585 186.78 61.8061 187.458 60.5497C188.137 59.2933 189.061 58.2824 190.231 57.517C191.401 56.7517 192.729 56.174 194.217 55.7841C195.719 55.3942 197.293 55.1198 198.939 54.9609C200.874 54.7588 202.434 54.571 203.618 54.3977C204.802 54.21 205.662 53.9356 206.196 53.5746C206.73 53.2135 206.997 52.6792 206.997 51.9716V51.8416C206.997 50.4697 206.564 49.4083 205.698 48.6573C204.846 47.9064 203.633 47.5309 202.059 47.5309C200.398 47.5309 199.076 47.8991 198.094 48.6357C197.112 49.3577 196.463 50.2675 196.145 51.3651L187.61 50.6719C188.043 48.6501 188.895 46.9027 190.166 45.4297C191.437 43.9422 193.076 42.8014 195.083 42.0071C197.105 41.1984 199.445 40.794 202.102 40.794C203.95 40.794 205.719 41.0107 207.409 41.4439C209.113 41.8771 210.622 42.5486 211.936 43.4584C213.265 44.3683 214.312 45.538 215.077 46.9677C215.843 48.3829 216.225 50.0798 216.225 52.0582V74.5H207.474V69.886H207.214C206.68 70.9258 205.965 71.8428 205.07 72.6371C204.174 73.4169 203.098 74.0307 201.842 74.4783C200.585 74.9116 199.134 75.1282 197.488 75.1282ZM200.131 68.7596C201.488 68.7596 202.687 68.4924 203.726 67.9581C204.766 67.4093 205.582 66.6728 206.174 65.7486C206.766 64.8243 207.062 63.7773 207.062 62.6076V59.0767C206.774 59.2644 206.376 59.4377 205.871 59.5966C205.38 59.741 204.824 59.8782 204.203 60.0082C203.582 60.1237 202.961 60.232 202.34 60.3331C201.719 60.4197 201.156 60.4992 200.65 60.5714C199.567 60.7302 198.621 60.983 197.813 61.3295C197.004 61.6761 196.376 62.1455 195.928 62.7376C195.48 63.3152 195.257 64.0373 195.257 64.9038C195.257 66.1602 195.712 67.1205 196.621 67.7848C197.546 68.4347 198.715 68.7596 200.131 68.7596ZM231.096 41.2273L237.205 52.8597L243.465 41.2273H252.932L243.292 57.8636L253.191 74.5H243.769L237.205 62.9975L230.75 74.5H221.218L231.096 57.8636L221.565 41.2273H231.096ZM258.585 74.5V30.1364H287.959V37.8697H267.965V48.4407H286.009V56.174H267.965V74.5H258.585ZM294.095 74.5V41.2273H303.323V74.5H294.095ZM298.73 36.9382C297.358 36.9382 296.181 36.4833 295.199 35.5735C294.232 34.6493 293.748 33.5445 293.748 32.2592C293.748 30.9884 294.232 29.8981 295.199 28.9883C296.181 28.064 297.358 27.6019 298.73 27.6019C300.102 27.6019 301.272 28.064 302.24 28.9883C303.222 29.8981 303.713 30.9884 303.713 32.2592C303.713 33.5445 303.222 34.6493 302.24 35.5735C301.272 36.4833 300.102 36.9382 298.73 36.9382ZM328.413 41.2273V48.1591H308.375V41.2273H328.413ZM312.924 33.2557H322.152V64.2756C322.152 65.1276 322.282 65.7919 322.542 66.2685C322.802 66.7306 323.163 67.0555 323.625 67.2433C324.102 67.431 324.651 67.5249 325.272 67.5249C325.705 67.5249 326.138 67.4888 326.571 67.4165C327.005 67.3299 327.337 67.2649 327.568 67.2216L329.019 74.0884C328.557 74.2328 327.907 74.3989 327.07 74.5866C326.232 74.7888 325.214 74.9116 324.015 74.9549C321.791 75.0415 319.842 74.7455 318.166 74.0668C316.506 73.388 315.213 72.3338 314.289 70.9041C313.365 69.4744 312.91 67.6693 312.924 65.4886V33.2557Z" fill="white"/>
</svg>
