<svg width="58" height="58" viewBox="0 0 58 58" fill="none" xmlns="http://www.w3.org/2000/svg">
<path d="M47.3424 21.013C46.868 19.2088 45.7818 18.367 43.9245 18.3661C42.5259 18.3661 41.1273 18.3631 39.7287 18.3661C37.7093 18.371 36.3893 19.69 36.3883 21.7113C36.3854 28.3861 36.3883 35.0619 36.3883 41.7367C36.3883 41.8594 36.3903 41.9822 36.3962 42.105C36.4669 43.7285 37.7928 45.0554 39.4212 45.0819C41.0644 45.1075 42.7095 45.1035 44.3527 45.0819C45.6089 45.0652 46.7295 44.2402 47.1686 43.0616C47.253 42.8347 47.312 42.598 47.3827 42.3653V21.0739C47.3689 21.0542 47.3483 21.0356 47.3424 21.013ZM44.2142 41.9213H39.545V21.5365H44.2142V41.9213Z" fill="white"/>
<path d="M17.5416 32.521C15.9603 32.4857 14.3771 32.4916 12.7948 32.5201C11.41 32.5446 10.2834 33.3746 9.84539 34.6239C9.77664 34.8193 9.72556 35.0207 9.66663 35.2191V42.4389C9.68823 42.4802 9.71965 42.5195 9.73046 42.5637C10.1164 44.1361 11.3039 45.0849 12.9088 45.0898C14.4174 45.0947 15.926 45.0957 17.4346 45.0898C19.2928 45.082 20.6413 43.755 20.6551 41.8929C20.6708 39.8323 20.6718 37.7707 20.6551 35.7101C20.6404 33.8941 19.3498 32.5623 17.5396 32.521H17.5416ZM17.5073 41.9155H12.8331V35.6895H17.5073V41.9155Z" fill="white"/>
<path d="M30.7448 26.2315C29.2962 26.2286 27.8475 26.2306 26.3988 26.2315C24.3401 26.2325 23.0211 27.5535 23.0191 29.62C23.0172 31.6334 23.0191 33.6469 23.0191 35.6603C23.0191 37.6983 23.0191 39.7363 23.0191 41.7743C23.0191 41.7988 23.0191 41.8234 23.0191 41.848C23.0456 43.7465 24.3922 45.0842 26.2878 45.0901C27.7728 45.094 29.2588 45.094 30.7439 45.0901C32.664 45.0862 34.0223 43.7524 34.0272 41.8303C34.038 37.717 34.038 33.6037 34.0272 29.4913C34.0223 27.5683 32.665 26.2355 30.7439 26.2315H30.7448ZM30.8558 41.9157H26.1896V29.4H30.8558V41.9157Z" fill="white"/>
<path d="M18.8095 24.6247C19.4057 24.7396 19.885 24.5245 20.3024 24.1061C22.4082 21.9955 24.5179 19.8877 26.6266 17.78C26.715 17.6916 26.8083 17.6072 26.9625 17.4608C26.9625 18.3713 26.9487 19.1786 26.9664 19.986C26.986 20.8552 27.6775 21.5172 28.529 21.5152C29.3658 21.5132 30.073 20.8611 30.0799 20.0144C30.0975 17.8674 30.0975 15.7194 30.0789 13.5724C30.072 12.7562 29.4041 12.0992 28.587 12.0933C26.4517 12.0776 24.3175 12.0835 22.1823 12.0923C21.703 12.0943 21.3032 12.3064 21.0096 12.6885C20.6246 13.1894 20.5519 13.7453 20.818 14.3149C21.1048 14.9298 21.6224 15.2244 22.2933 15.2333C23.0652 15.2441 23.8372 15.2352 24.7084 15.2352C24.5522 15.4012 24.4648 15.4984 24.3725 15.5908C22.4376 17.5256 20.5028 19.4605 18.5679 21.3963C18.3509 21.6134 18.1259 21.8226 17.9226 22.0524C17.5229 22.5042 17.4276 23.0326 17.6181 23.5974C17.8097 24.1661 18.2173 24.5108 18.8085 24.6247H18.8095Z" fill="white"/>
</svg>
