<svg width="71" height="87" viewBox="0 0 71 87" fill="none" xmlns="http://www.w3.org/2000/svg">
<path d="M70.5 5.66573C70.5 2.23641 68.4374 0.130862 65.0856 0.126066C54.2802 0.126066 43.4748 0.126066 32.6693 0.126066C32.4209 0.126066 32.1724 0.116473 31.9287 0.154843C31.0427 0.284342 30.4614 0.941428 30.4567 1.80475C30.452 2.66808 31.0145 3.33955 31.9005 3.47864C32.1959 3.5266 32.5053 3.51222 32.81 3.51222C43.4748 3.51222 54.1442 3.51222 64.809 3.51222C66.7076 3.51222 67.1951 4.01582 67.1951 5.97749C67.1951 30.9611 67.1951 55.94 67.1951 80.9236C67.1951 82.8661 66.7029 83.3697 64.7856 83.3697C45.2139 83.3697 25.647 83.3697 6.07538 83.3697C4.17213 83.3697 3.6846 82.8661 3.6846 80.9092C3.6846 66.3047 3.6846 51.7001 3.6846 37.0907C3.6846 36.6974 3.67522 36.2946 3.57678 35.9204C3.3377 35.0283 2.53139 34.5823 1.65009 34.7885C0.801591 34.99 0.375 35.6423 0.375 36.7934C0.375 51.6809 0.375 66.5685 0.375 81.456C0.375 83.2978 1.05473 84.823 2.57358 85.8494C3.15487 86.2475 3.85805 86.4537 4.50965 86.7463H66.3654C69.4781 85.4417 70.5 84.0843 70.5 81.197C70.5 56.0167 70.5 30.8412 70.5 5.66093V5.66573Z" fill="white"/>
<path d="M43.0575 24.0742C41.4871 18.7504 34.746 16.7215 30.5036 20.1844C27.419 22.7025 26.758 26.5107 27.6581 30.3765C27.9815 31.7722 28.8535 33.0336 29.4254 34.2518C27.9909 35.1871 26.2986 36.06 24.8876 37.2735C23.4531 38.5061 22.2858 40.0697 20.9967 41.499C20.9967 41.499 20.8889 41.379 20.7904 41.2495C18.8919 38.7651 17.6261 35.9881 17.0683 32.8801C16.8433 31.6187 16.0229 31.0096 14.9916 31.2542C14.0587 31.4748 13.604 32.3621 13.8196 33.5228C16.126 45.8252 27.6534 53.8445 39.6307 51.4751C51.6034 49.1106 59.4508 37.0672 56.9757 24.8608C54.8568 14.4002 45.7905 6.86047 35.3555 6.90843C34.2585 6.91323 33.1522 7.01874 32.0693 7.19621C31.1411 7.34968 30.602 8.16984 30.7098 9.01878C30.8223 9.89649 31.4974 10.472 32.449 10.472C32.7772 10.472 33.11 10.4049 33.4381 10.4193C35.3555 10.4912 37.3243 10.3234 39.1854 10.7071C50.3893 13.0093 56.8725 24.9567 52.9816 35.9785C52.2503 38.0505 51.1956 39.9354 49.7189 41.6764C47.6657 38.1799 44.7873 35.7962 41.159 34.3238C41.5902 33.7242 41.9981 33.2542 42.3028 32.7266C43.8873 29.9736 43.9388 27.0383 43.0669 24.079L43.0575 24.0742ZM30.6536 26.6354C30.7708 23.9111 32.8709 21.8104 35.4492 21.82C38.0369 21.8295 40.1089 23.9255 40.2308 26.6546C40.2448 26.9615 40.2308 27.2733 40.2308 27.585C40.2355 30.5299 39.0073 32.4436 36.6962 33.0959C33.8179 33.9065 30.9395 31.8393 30.677 28.7457C30.6161 28.0455 30.6255 27.3356 30.6583 26.6354H30.6536ZM47.2391 44.0793C40.8683 49.8972 30.1801 49.9931 23.6172 44.1225C26.1767 39.3598 30.0957 36.7219 35.4164 36.7123C40.7371 36.7027 44.6655 39.3263 47.2391 44.0793Z" fill="white"/>
<path d="M13.8665 27.8729C21.3155 27.9257 27.4612 21.6953 27.494 14.0549C27.5315 6.4289 21.4327 0.150612 13.965 0.126631C6.51135 0.107446 0.384378 6.35695 0.375003 13.9926C0.370315 21.5898 6.42228 27.8202 13.8618 27.8729H13.8665ZM13.8993 3.51758C19.5388 3.49839 24.1703 8.19871 24.1891 13.9638C24.2078 19.7337 19.6138 24.4676 13.9743 24.4916C8.33491 24.5107 3.70335 19.8104 3.6846 14.0453C3.66585 8.27545 8.25991 3.54156 13.8993 3.51758Z" fill="white"/>
<path d="M50.6846 57.9981C50.4643 57.9789 50.244 57.9885 50.0236 57.9885C42.6356 57.9885 35.2523 57.9885 27.8643 57.9885C27.6159 57.9885 27.3674 57.9789 27.1237 58.0077C26.2095 58.1276 25.5767 58.8326 25.5907 59.7007C25.6048 60.5497 26.2048 61.2164 27.0862 61.3411C27.358 61.3794 27.6346 61.365 27.9112 61.365C31.5771 61.365 35.243 61.365 38.9088 61.365C42.0497 61.365 45.1905 61.365 48.336 61.365C49.1095 61.365 49.883 61.3938 50.6518 61.3554C51.6878 61.3027 52.3441 60.612 52.33 59.6528C52.316 58.7271 51.6784 58.0748 50.6846 57.9933V57.9981Z" fill="white"/>
<path d="M50.3189 67.4659C46.5452 67.4611 42.7668 67.4659 38.9931 67.4659C36.9258 67.4659 34.8585 67.4659 32.7912 67.4659C31.0004 67.4659 29.2097 67.4467 27.4189 67.4755C26.0688 67.4946 25.2391 68.6409 25.7219 69.7968C26.0923 70.6745 26.8423 70.8616 27.7002 70.8568C35.196 70.8472 42.6918 70.8568 50.1876 70.8472C50.4877 70.8472 50.7971 70.8376 51.0877 70.7657C51.9456 70.5498 52.4144 69.8208 52.3112 68.9287C52.1987 67.9887 51.5049 67.4707 50.3189 67.4659Z" fill="white"/>
<path d="M20.1717 58.0028C19.295 57.998 18.5497 58.7606 18.545 59.6719C18.545 60.5832 19.2763 61.3554 20.1576 61.3602C21.0295 61.365 21.7889 60.5928 21.7936 59.6863C21.7983 58.7846 21.053 58.0028 20.1763 57.998L20.1717 58.0028Z" fill="white"/>
<path d="M18.5403 69.1349C18.5309 70.0462 19.2575 70.8232 20.1389 70.8376C21.0108 70.852 21.7749 70.0798 21.789 69.1781C21.803 68.2764 21.0624 67.4946 20.181 67.4754C19.3044 67.461 18.5497 68.2236 18.5403 69.1301V69.1349Z" fill="white"/>
<path d="M0.389044 30.0551C0.37498 30.928 1.14847 31.7386 2.01103 31.753C2.86421 31.7673 3.65645 30.976 3.67051 30.0935C3.68458 29.2205 2.91109 28.41 2.04853 28.3956C1.19535 28.3812 0.403107 29.1726 0.389044 30.0551Z" fill="white"/>
<path d="M10.585 18.6161C11.7101 19.7576 12.5023 19.7624 13.6227 18.6161C15.5775 16.6256 17.523 14.6304 19.4684 12.6351C19.6606 12.4385 19.8528 12.2275 20.0028 11.9924C20.4388 11.321 20.3497 10.448 19.82 9.89648C19.2809 9.34011 18.4324 9.23939 17.7761 9.68544C17.5042 9.8725 17.2651 10.1123 17.0308 10.3473C15.4135 11.9972 13.7962 13.6519 12.0523 15.4409C11.4804 14.8174 10.9929 14.2419 10.4631 13.7143C9.58651 12.8366 8.62082 12.7886 7.91296 13.5464C7.24729 14.2611 7.32229 15.2443 8.13328 16.098C8.93959 16.947 9.76464 17.7767 10.585 18.6113V18.6161Z" fill="white"/>
</svg>
